<svg xmlns="http://www.w3.org/2000/svg" viewBox="0 0 600 400">
  <defs>
    <style>
      .bg { fill: #0b0f14; }
      .edge { stroke: rgba(255,255,255,0.15); stroke-width: 1; fill: none; }
      .node-core { fill: #3b82f6; }
      .node-sat { fill: #10b981; }
      .node-unsat { fill: #f59e0b; }
      .node-interval { fill: #ef4444; }
      .node-util { fill: #8b5cf6; }
      .node-cli { fill: #ec4899; }
      .node { stroke: white; stroke-width: 1; }
      .title { fill: #4a9eff; font-family: sans-serif; font-size: 16px; font-weight: 600; }
      .label { fill: #6b7d8c; font-family: sans-serif; font-size: 9px; }
    </style>
  </defs>

  <rect class="bg" width="600" height="400"/>

  <!-- Title -->
  <text class="title" x="20" y="30">SemiAlgebraic 2D Proof Map</text>

  <!-- Edges (sample) -->
  <g class="edge">
    <line x1="100" y1="120" x2="180" y2="150"/>
    <line x1="100" y1="120" x2="120" y2="180"/>
    <line x1="180" y1="150" x2="250" y2="200"/>
    <line x1="250" y1="200" x2="350" y2="180"/>
    <line x1="350" y1="180" x2="450" y2="150"/>
    <line x1="120" y1="180" x2="200" y2="250"/>
    <line x1="200" y1="250" x2="300" y2="280"/>
    <line x1="300" y1="280" x2="400" y2="300"/>
    <line x1="450" y1="150" x2="520" y2="200"/>
    <line x1="400" y1="300" x2="480" y2="320"/>
  </g>

  <!-- Core/IR nodes -->
  <circle class="node node-core" cx="100" cy="120" r="8"/>
  <circle class="node node-core" cx="120" cy="180" r="6"/>
  <circle class="node node-core" cx="80" cy="150" r="5"/>
  <text class="label" x="100" y="140">Core/IR</text>

  <!-- SAT nodes -->
  <circle class="node node-sat" cx="250" cy="200" r="7"/>
  <circle class="node node-sat" cx="270" cy="170" r="5"/>
  <circle class="node node-sat" cx="230" cy="230" r="6"/>
  <text class="label" x="250" y="160">SAT/Cert</text>

  <!-- UNSAT Pattern nodes -->
  <circle class="node node-unsat" cx="350" cy="180" r="7"/>
  <circle class="node node-unsat" cx="380" cy="200" r="5"/>
  <circle class="node node-unsat" cx="330" cy="210" r="6"/>
  <text class="label" x="350" y="165">UNSAT/Pattern</text>

  <!-- UNSAT Interval nodes -->
  <circle class="node node-interval" cx="450" cy="150" r="8"/>
  <circle class="node node-interval" cx="480" cy="180" r="6"/>
  <circle class="node node-interval" cx="420" cy="170" r="5"/>
  <text class="label" x="450" y="135">UNSAT/Interval</text>

  <!-- Util nodes -->
  <circle class="node node-util" cx="200" cy="250" r="6"/>
  <circle class="node node-util" cx="180" cy="280" r="5"/>
  <circle class="node node-util" cx="220" cy="290" r="5"/>
  <text class="label" x="200" y="310">Util/JCS+SHA</text>

  <!-- CLI nodes -->
  <circle class="node node-cli" cx="400" cy="300" r="7"/>
  <circle class="node node-cli" cx="450" cy="320" r="6"/>
  <circle class="node node-cli" cx="480" cy="290" r="5"/>
  <text class="label" x="430" y="350">CLI</text>

  <!-- Legend -->
  <g transform="translate(20, 360)">
    <circle class="node-core" cx="5" cy="5" r="4"/>
    <text class="label" x="15" y="8">Core</text>
    <circle class="node-sat" cx="55" cy="5" r="4"/>
    <text class="label" x="65" y="8">SAT</text>
    <circle class="node-unsat" cx="100" cy="5" r="4"/>
    <text class="label" x="110" y="8">UNSAT</text>
    <circle class="node-interval" cx="160" cy="5" r="4"/>
    <text class="label" x="170" y="8">Interval</text>
    <circle class="node-util" cx="220" cy="5" r="4"/>
    <text class="label" x="230" y="8">Util</text>
    <circle class="node-cli" cx="265" cy="5" r="4"/>
    <text class="label" x="275" y="8">CLI</text>
  </g>

  <!-- Click hint -->
  <text class="label" x="480" y="385">Click to explore</text>
</svg>
